<mxfile host="app.diagrams.net" agent="Mozilla/5.0 (Windows NT 10.0; Win64; x64) AppleWebKit/537.36 (KHTML, like Gecko) Chrome/141.0.0.0 Safari/537.36 Edg/141.0.0.0" version="28.2.5" pages="3">
  <diagram name="Page-1" id="XkXbQeuMfDBbyy4YrDp9">
    <mxGraphModel dx="1418" dy="756" grid="1" gridSize="10" guides="1" tooltips="1" connect="1" arrows="1" fold="1" page="1" pageScale="1" pageWidth="850" pageHeight="1100" math="0" shadow="0">
      <root>
        <mxCell id="0" />
        <mxCell id="1" parent="0" />
        <mxCell id="O5wGwF4iqjPsfDwwZtzJ-66" value="" style="rounded=0;whiteSpace=wrap;html=1;strokeColor=none;" vertex="1" parent="1">
          <mxGeometry x="320" y="60" width="680" height="560" as="geometry" />
        </mxCell>
        <mxCell id="O5wGwF4iqjPsfDwwZtzJ-15" style="edgeStyle=orthogonalEdgeStyle;rounded=0;orthogonalLoop=1;jettySize=auto;html=1;exitX=0.5;exitY=1;exitDx=0;exitDy=0;entryX=0.5;entryY=0;entryDx=0;entryDy=0;strokeWidth=2;" edge="1" parent="1" source="O5wGwF4iqjPsfDwwZtzJ-13" target="O5wGwF4iqjPsfDwwZtzJ-14">
          <mxGeometry relative="1" as="geometry" />
        </mxCell>
        <mxCell id="O5wGwF4iqjPsfDwwZtzJ-13" value="&lt;b&gt;&lt;font style=&quot;font-size: 16px;&quot;&gt;User Browser&lt;/font&gt;&lt;/b&gt;&lt;div&gt;(React Web App Access)&lt;/div&gt;" style="rounded=1;whiteSpace=wrap;html=1;strokeColor=#66B2FF;strokeWidth=2;" vertex="1" parent="1">
          <mxGeometry x="480" y="80" width="160" height="60" as="geometry" />
        </mxCell>
        <mxCell id="O5wGwF4iqjPsfDwwZtzJ-22" style="edgeStyle=orthogonalEdgeStyle;rounded=0;orthogonalLoop=1;jettySize=auto;html=1;exitX=0.5;exitY=1;exitDx=0;exitDy=0;entryX=0.5;entryY=0;entryDx=0;entryDy=0;curved=1;strokeWidth=2;" edge="1" parent="1" source="O5wGwF4iqjPsfDwwZtzJ-17" target="O5wGwF4iqjPsfDwwZtzJ-18">
          <mxGeometry relative="1" as="geometry" />
        </mxCell>
        <mxCell id="O5wGwF4iqjPsfDwwZtzJ-29" value="Static Assets&lt;div&gt;Cache&lt;/div&gt;" style="edgeLabel;html=1;align=left;verticalAlign=middle;resizable=0;points=[];" vertex="1" connectable="0" parent="O5wGwF4iqjPsfDwwZtzJ-22">
          <mxGeometry x="0.0757" relative="1" as="geometry">
            <mxPoint x="-31" y="10" as="offset" />
          </mxGeometry>
        </mxCell>
        <mxCell id="O5wGwF4iqjPsfDwwZtzJ-26" style="edgeStyle=orthogonalEdgeStyle;rounded=0;orthogonalLoop=1;jettySize=auto;html=1;exitX=0.5;exitY=1;exitDx=0;exitDy=0;entryX=0.5;entryY=0;entryDx=0;entryDy=0;curved=1;strokeWidth=2;" edge="1" parent="1" source="O5wGwF4iqjPsfDwwZtzJ-17" target="O5wGwF4iqjPsfDwwZtzJ-23">
          <mxGeometry relative="1" as="geometry" />
        </mxCell>
        <mxCell id="O5wGwF4iqjPsfDwwZtzJ-30" value="Dynamic API&lt;div&gt;Calls&lt;/div&gt;" style="edgeLabel;html=1;align=left;verticalAlign=middle;resizable=0;points=[];" vertex="1" connectable="0" parent="O5wGwF4iqjPsfDwwZtzJ-26">
          <mxGeometry x="-0.1051" y="-1" relative="1" as="geometry">
            <mxPoint x="-24" y="9" as="offset" />
          </mxGeometry>
        </mxCell>
        <mxCell id="O5wGwF4iqjPsfDwwZtzJ-27" value="" style="group" vertex="1" connectable="0" parent="1">
          <mxGeometry x="600" y="320" width="140" height="130" as="geometry" />
        </mxCell>
        <mxCell id="O5wGwF4iqjPsfDwwZtzJ-23" value="" style="rounded=1;whiteSpace=wrap;html=1;strokeColor=#66B2FF;strokeWidth=2;align=right;" vertex="1" parent="O5wGwF4iqjPsfDwwZtzJ-27">
          <mxGeometry width="130" height="130" as="geometry" />
        </mxCell>
        <mxCell id="O5wGwF4iqjPsfDwwZtzJ-4" value="" style="sketch=0;points=[[0,0,0],[0.25,0,0],[0.5,0,0],[0.75,0,0],[1,0,0],[0,1,0],[0.25,1,0],[0.5,1,0],[0.75,1,0],[1,1,0],[0,0.25,0],[0,0.5,0],[0,0.75,0],[1,0.25,0],[1,0.5,0],[1,0.75,0]];outlineConnect=0;fontColor=#232F3E;fillColor=light-dark(#f58536, #ff81d9);strokeColor=#ffffff;dashed=0;verticalLabelPosition=bottom;verticalAlign=top;align=center;html=1;fontSize=12;fontStyle=0;aspect=fixed;shape=mxgraph.aws4.resourceIcon;resIcon=mxgraph.aws4.api_gateway;" vertex="1" parent="O5wGwF4iqjPsfDwwZtzJ-27">
          <mxGeometry x="40" y="10" width="50" height="50" as="geometry" />
        </mxCell>
        <mxCell id="O5wGwF4iqjPsfDwwZtzJ-24" value="&lt;b style=&quot;&quot;&gt;&lt;font style=&quot;font-size: 16px;&quot;&gt;Amazon API&lt;/font&gt;&lt;/b&gt;&lt;div&gt;&lt;b style=&quot;&quot;&gt;&lt;font style=&quot;font-size: 16px;&quot;&gt;Gateway&lt;/font&gt;&lt;/b&gt;&lt;/div&gt;" style="text;html=1;align=left;verticalAlign=middle;whiteSpace=wrap;rounded=0;" vertex="1" parent="O5wGwF4iqjPsfDwwZtzJ-27">
          <mxGeometry x="20" y="60" width="110" height="40" as="geometry" />
        </mxCell>
        <mxCell id="O5wGwF4iqjPsfDwwZtzJ-25" value="API endpoint routing" style="text;html=1;align=left;verticalAlign=middle;whiteSpace=wrap;rounded=0;" vertex="1" parent="O5wGwF4iqjPsfDwwZtzJ-27">
          <mxGeometry x="10" y="100" width="130" height="30" as="geometry" />
        </mxCell>
        <mxCell id="O5wGwF4iqjPsfDwwZtzJ-28" value="" style="group" vertex="1" connectable="0" parent="1">
          <mxGeometry x="350" y="320" width="170" height="130" as="geometry" />
        </mxCell>
        <mxCell id="O5wGwF4iqjPsfDwwZtzJ-18" value="" style="rounded=1;whiteSpace=wrap;html=1;strokeColor=#66B2FF;strokeWidth=2;align=right;" vertex="1" parent="O5wGwF4iqjPsfDwwZtzJ-28">
          <mxGeometry width="170" height="130" as="geometry" />
        </mxCell>
        <mxCell id="O5wGwF4iqjPsfDwwZtzJ-3" value="" style="sketch=0;outlineConnect=0;fontColor=#232F3E;gradientColor=none;strokeColor=#ffffff;fillColor=light-dark(#f58536, #bdc7d4);dashed=0;verticalLabelPosition=middle;verticalAlign=bottom;align=center;html=1;whiteSpace=wrap;fontSize=10;fontStyle=1;spacing=3;shape=mxgraph.aws4.productIcon;prIcon=mxgraph.aws4.s3;" vertex="1" parent="O5wGwF4iqjPsfDwwZtzJ-28">
          <mxGeometry x="10" y="10" width="50" height="50" as="geometry" />
        </mxCell>
        <mxCell id="O5wGwF4iqjPsfDwwZtzJ-19" value="&lt;b style=&quot;&quot;&gt;&lt;font style=&quot;font-size: 16px;&quot;&gt;Amazon S3&lt;/font&gt;&lt;/b&gt;&lt;div&gt;&lt;b style=&quot;&quot;&gt;&lt;font style=&quot;font-size: 16px;&quot;&gt;(Origin)&lt;/font&gt;&lt;/b&gt;&lt;/div&gt;" style="text;html=1;align=left;verticalAlign=middle;whiteSpace=wrap;rounded=0;" vertex="1" parent="O5wGwF4iqjPsfDwwZtzJ-28">
          <mxGeometry x="70" y="10" width="100" height="40" as="geometry" />
        </mxCell>
        <mxCell id="O5wGwF4iqjPsfDwwZtzJ-20" value="React build files:&lt;div&gt;Index.html, JS, CSS, images, fonts, etc.&lt;/div&gt;" style="text;html=1;align=left;verticalAlign=middle;whiteSpace=wrap;rounded=0;" vertex="1" parent="O5wGwF4iqjPsfDwwZtzJ-28">
          <mxGeometry x="70" y="50" width="100" height="80" as="geometry" />
        </mxCell>
        <mxCell id="O5wGwF4iqjPsfDwwZtzJ-38" style="edgeStyle=orthogonalEdgeStyle;rounded=0;orthogonalLoop=1;jettySize=auto;html=1;entryX=0.5;entryY=0;entryDx=0;entryDy=0;strokeWidth=2;curved=1;" edge="1" parent="1" source="O5wGwF4iqjPsfDwwZtzJ-25" target="O5wGwF4iqjPsfDwwZtzJ-32">
          <mxGeometry relative="1" as="geometry" />
        </mxCell>
        <mxCell id="O5wGwF4iqjPsfDwwZtzJ-39" style="edgeStyle=orthogonalEdgeStyle;rounded=0;orthogonalLoop=1;jettySize=auto;html=1;entryX=0.5;entryY=0;entryDx=0;entryDy=0;strokeWidth=2;curved=1;" edge="1" parent="1" source="O5wGwF4iqjPsfDwwZtzJ-18" target="O5wGwF4iqjPsfDwwZtzJ-32">
          <mxGeometry relative="1" as="geometry" />
        </mxCell>
        <mxCell id="O5wGwF4iqjPsfDwwZtzJ-40" value="" style="group" vertex="1" connectable="0" parent="1">
          <mxGeometry x="450" y="510" width="220" height="80" as="geometry" />
        </mxCell>
        <mxCell id="O5wGwF4iqjPsfDwwZtzJ-32" value="" style="rounded=1;whiteSpace=wrap;html=1;strokeColor=#66B2FF;strokeWidth=2;align=right;" vertex="1" parent="O5wGwF4iqjPsfDwwZtzJ-40">
          <mxGeometry width="220" height="80" as="geometry" />
        </mxCell>
        <mxCell id="O5wGwF4iqjPsfDwwZtzJ-34" value="&lt;span style=&quot;font-size: 16px;&quot;&gt;&lt;b&gt;Application Load&lt;/b&gt;&lt;/span&gt;&lt;div&gt;&lt;span style=&quot;font-size: 16px;&quot;&gt;&lt;b&gt;Balancer (ALB)&lt;/b&gt;&lt;/span&gt;&lt;/div&gt;" style="text;html=1;align=left;verticalAlign=middle;whiteSpace=wrap;rounded=0;" vertex="1" parent="O5wGwF4iqjPsfDwwZtzJ-40">
          <mxGeometry x="70" y="10" width="140" height="40" as="geometry" />
        </mxCell>
        <mxCell id="O5wGwF4iqjPsfDwwZtzJ-35" value="Business logic &amp;amp; API" style="text;html=1;align=left;verticalAlign=middle;whiteSpace=wrap;rounded=0;" vertex="1" parent="O5wGwF4iqjPsfDwwZtzJ-40">
          <mxGeometry x="70" y="50" width="130" height="30" as="geometry" />
        </mxCell>
        <mxCell id="O5wGwF4iqjPsfDwwZtzJ-5" value="" style="sketch=0;outlineConnect=0;fontColor=#232F3E;gradientColor=none;fillColor=light-dark(#f58536, #b17dff);strokeColor=none;dashed=0;verticalLabelPosition=bottom;verticalAlign=top;align=center;html=1;fontSize=12;fontStyle=0;aspect=fixed;pointerEvents=1;shape=mxgraph.aws4.application_load_balancer;" vertex="1" parent="O5wGwF4iqjPsfDwwZtzJ-40">
          <mxGeometry x="10" y="10" width="50" height="50" as="geometry" />
        </mxCell>
        <mxCell id="O5wGwF4iqjPsfDwwZtzJ-46" value="" style="group" vertex="1" connectable="0" parent="1">
          <mxGeometry x="770" y="180" width="210" height="70" as="geometry" />
        </mxCell>
        <mxCell id="O5wGwF4iqjPsfDwwZtzJ-42" value="" style="rounded=1;whiteSpace=wrap;html=1;strokeColor=#999999;strokeWidth=2;align=right;" vertex="1" parent="O5wGwF4iqjPsfDwwZtzJ-46">
          <mxGeometry width="200" height="70" as="geometry" />
        </mxCell>
        <mxCell id="O5wGwF4iqjPsfDwwZtzJ-43" value="&lt;span style=&quot;font-size: 16px;&quot;&gt;&lt;b&gt;AWS Route 53&lt;/b&gt;&lt;/span&gt;" style="text;html=1;align=left;verticalAlign=middle;whiteSpace=wrap;rounded=0;" vertex="1" parent="O5wGwF4iqjPsfDwwZtzJ-46">
          <mxGeometry x="70" y="8" width="140" height="40" as="geometry" />
        </mxCell>
        <mxCell id="O5wGwF4iqjPsfDwwZtzJ-44" value="(manages domain)" style="text;html=1;align=left;verticalAlign=middle;whiteSpace=wrap;rounded=0;" vertex="1" parent="O5wGwF4iqjPsfDwwZtzJ-46">
          <mxGeometry x="70" y="30" width="130" height="30" as="geometry" />
        </mxCell>
        <mxCell id="O5wGwF4iqjPsfDwwZtzJ-6" value="" style="sketch=0;points=[[0,0,0],[0.25,0,0],[0.5,0,0],[0.75,0,0],[1,0,0],[0,1,0],[0.25,1,0],[0.5,1,0],[0.75,1,0],[1,1,0],[0,0.25,0],[0,0.5,0],[0,0.75,0],[1,0.25,0],[1,0.5,0],[1,0.75,0]];outlineConnect=0;fontColor=#232F3E;fillColor=light-dark(#f58536, #b17dff);strokeColor=#ffffff;dashed=0;verticalLabelPosition=bottom;verticalAlign=top;align=center;html=1;fontSize=12;fontStyle=0;aspect=fixed;shape=mxgraph.aws4.resourceIcon;resIcon=mxgraph.aws4.route_53;" vertex="1" parent="O5wGwF4iqjPsfDwwZtzJ-46">
          <mxGeometry x="10" y="10" width="50" height="50" as="geometry" />
        </mxCell>
        <mxCell id="O5wGwF4iqjPsfDwwZtzJ-62" value="" style="group" vertex="1" connectable="0" parent="1">
          <mxGeometry x="770" y="350" width="210" height="70" as="geometry" />
        </mxCell>
        <mxCell id="O5wGwF4iqjPsfDwwZtzJ-48" value="" style="rounded=1;whiteSpace=wrap;html=1;strokeColor=#999999;strokeWidth=2;align=right;" vertex="1" parent="O5wGwF4iqjPsfDwwZtzJ-62">
          <mxGeometry width="200" height="70" as="geometry" />
        </mxCell>
        <mxCell id="O5wGwF4iqjPsfDwwZtzJ-49" value="&lt;span style=&quot;font-size: 16px;&quot;&gt;&lt;b&gt;AWS WAF&lt;/b&gt;&lt;/span&gt;" style="text;html=1;align=left;verticalAlign=middle;whiteSpace=wrap;rounded=0;" vertex="1" parent="O5wGwF4iqjPsfDwwZtzJ-62">
          <mxGeometry x="70" y="8" width="140" height="40" as="geometry" />
        </mxCell>
        <mxCell id="O5wGwF4iqjPsfDwwZtzJ-50" value="(protects CloudFront)" style="text;html=1;align=left;verticalAlign=middle;whiteSpace=wrap;rounded=0;" vertex="1" parent="O5wGwF4iqjPsfDwwZtzJ-62">
          <mxGeometry x="70" y="30" width="130" height="30" as="geometry" />
        </mxCell>
        <mxCell id="O5wGwF4iqjPsfDwwZtzJ-11" value="" style="sketch=0;points=[[0,0,0],[0.25,0,0],[0.5,0,0],[0.75,0,0],[1,0,0],[0,1,0],[0.25,1,0],[0.5,1,0],[0.75,1,0],[1,1,0],[0,0.25,0],[0,0.5,0],[0,0.75,0],[1,0.25,0],[1,0.5,0],[1,0.75,0]];outlineConnect=0;fontColor=#232F3E;fillColor=light-dark(#f58536, #ff7f93);strokeColor=#ffffff;dashed=0;verticalLabelPosition=bottom;verticalAlign=top;align=center;html=1;fontSize=12;fontStyle=0;aspect=fixed;shape=mxgraph.aws4.resourceIcon;resIcon=mxgraph.aws4.waf;" vertex="1" parent="O5wGwF4iqjPsfDwwZtzJ-62">
          <mxGeometry x="10" y="11" width="48" height="48" as="geometry" />
        </mxCell>
        <mxCell id="O5wGwF4iqjPsfDwwZtzJ-63" value="" style="group" vertex="1" connectable="0" parent="1">
          <mxGeometry x="770" y="260" width="210" height="80" as="geometry" />
        </mxCell>
        <mxCell id="O5wGwF4iqjPsfDwwZtzJ-53" value="" style="rounded=1;whiteSpace=wrap;html=1;strokeColor=#999999;strokeWidth=2;align=right;" vertex="1" parent="O5wGwF4iqjPsfDwwZtzJ-63">
          <mxGeometry width="200" height="80" as="geometry" />
        </mxCell>
        <mxCell id="O5wGwF4iqjPsfDwwZtzJ-54" value="&lt;span style=&quot;font-size: 16px;&quot;&gt;&lt;b&gt;AWS Certificate&lt;/b&gt;&lt;/span&gt;&lt;div&gt;&lt;span style=&quot;font-size: 16px;&quot;&gt;&lt;b&gt;Manager&lt;/b&gt;&lt;/span&gt;&lt;/div&gt;" style="text;html=1;align=left;verticalAlign=middle;whiteSpace=wrap;rounded=0;" vertex="1" parent="O5wGwF4iqjPsfDwwZtzJ-63">
          <mxGeometry x="70" y="8" width="140" height="40" as="geometry" />
        </mxCell>
        <mxCell id="O5wGwF4iqjPsfDwwZtzJ-55" value="(provides HTTPS/SSL)" style="text;html=1;align=left;verticalAlign=middle;whiteSpace=wrap;rounded=0;" vertex="1" parent="O5wGwF4iqjPsfDwwZtzJ-63">
          <mxGeometry x="70" y="48" width="130" height="30" as="geometry" />
        </mxCell>
        <mxCell id="O5wGwF4iqjPsfDwwZtzJ-9" value="" style="sketch=0;outlineConnect=0;fontColor=#232F3E;gradientColor=none;fillColor=light-dark(#f58536, #61820b);strokeColor=none;dashed=0;verticalLabelPosition=bottom;verticalAlign=top;align=center;html=1;fontSize=12;fontStyle=0;aspect=fixed;pointerEvents=1;shape=mxgraph.aws4.certificate_manager;" vertex="1" parent="O5wGwF4iqjPsfDwwZtzJ-63">
          <mxGeometry x="10" y="5" width="45.38" height="60" as="geometry" />
        </mxCell>
        <mxCell id="O5wGwF4iqjPsfDwwZtzJ-64" value="" style="group" vertex="1" connectable="0" parent="1">
          <mxGeometry x="460" y="180" width="200" height="80" as="geometry" />
        </mxCell>
        <mxCell id="O5wGwF4iqjPsfDwwZtzJ-14" value="" style="rounded=1;whiteSpace=wrap;html=1;strokeColor=#66B2FF;strokeWidth=2;align=right;" vertex="1" parent="O5wGwF4iqjPsfDwwZtzJ-64">
          <mxGeometry width="200" height="80" as="geometry" />
        </mxCell>
        <mxCell id="O5wGwF4iqjPsfDwwZtzJ-16" value="&lt;b style=&quot;&quot;&gt;&lt;font style=&quot;font-size: 16px;&quot;&gt;Amazon Cloud&lt;/font&gt;&lt;/b&gt;&lt;div style=&quot;&quot;&gt;&lt;b&gt;&lt;font style=&quot;font-size: 16px;&quot;&gt;Front&lt;/font&gt;&lt;/b&gt;&lt;/div&gt;" style="text;html=1;align=left;verticalAlign=middle;whiteSpace=wrap;rounded=0;" vertex="1" parent="O5wGwF4iqjPsfDwwZtzJ-64">
          <mxGeometry x="80" y="10" width="120" height="40" as="geometry" />
        </mxCell>
        <mxCell id="O5wGwF4iqjPsfDwwZtzJ-1" value="" style="outlineConnect=0;dashed=0;verticalLabelPosition=bottom;verticalAlign=top;align=center;html=1;shape=mxgraph.aws3.cloudfront;fillColor=#F58536;gradientColor=none;" vertex="1" parent="O5wGwF4iqjPsfDwwZtzJ-64">
          <mxGeometry x="20" y="5" width="50" height="50" as="geometry" />
        </mxCell>
        <mxCell id="O5wGwF4iqjPsfDwwZtzJ-17" value="Global CDN + Caching Layer" style="text;html=1;align=left;verticalAlign=middle;whiteSpace=wrap;rounded=0;" vertex="1" parent="O5wGwF4iqjPsfDwwZtzJ-64">
          <mxGeometry x="20" y="50" width="160" height="30" as="geometry" />
        </mxCell>
      </root>
    </mxGraphModel>
  </diagram>
  <diagram id="F_AVvhlNSr0C8Hp60n5y" name="Page-2">
    <mxGraphModel dx="1668" dy="889" grid="1" gridSize="10" guides="1" tooltips="1" connect="1" arrows="1" fold="1" page="1" pageScale="1" pageWidth="850" pageHeight="1100" math="0" shadow="0">
      <root>
        <mxCell id="0" />
        <mxCell id="1" parent="0" />
        <mxCell id="n4QECdP25EKG80CjT-cM-83" value="" style="rounded=1;whiteSpace=wrap;html=1;arcSize=6;strokeColor=#B3B3B3;" vertex="1" parent="1">
          <mxGeometry x="560" y="550" width="200" height="170" as="geometry" />
        </mxCell>
        <mxCell id="n4QECdP25EKG80CjT-cM-82" value="" style="rounded=1;whiteSpace=wrap;html=1;arcSize=8;strokeColor=#B3B3B3;" vertex="1" parent="1">
          <mxGeometry x="270" y="370" width="300" height="160" as="geometry" />
        </mxCell>
        <mxCell id="n4QECdP25EKG80CjT-cM-78" value="" style="rounded=1;whiteSpace=wrap;html=1;arcSize=6;strokeColor=#CCCCCC;" vertex="1" parent="1">
          <mxGeometry x="80" y="550" width="200" height="170" as="geometry" />
        </mxCell>
        <mxCell id="n4QECdP25EKG80CjT-cM-1" value="React UI" style="rounded=1;whiteSpace=wrap;html=1;fontSize=16;fontStyle=1" vertex="1" parent="1">
          <mxGeometry x="360" y="40" width="120" height="60" as="geometry" />
        </mxCell>
        <mxCell id="n4QECdP25EKG80CjT-cM-6" style="rounded=0;orthogonalLoop=1;jettySize=auto;html=1;exitX=0.439;exitY=1.002;exitDx=0;exitDy=0;entryX=0.416;entryY=-0.003;entryDx=0;entryDy=0;exitPerimeter=0;entryPerimeter=0;" edge="1" parent="1" source="n4QECdP25EKG80CjT-cM-2" target="n4QECdP25EKG80CjT-cM-4">
          <mxGeometry relative="1" as="geometry">
            <mxPoint x="410" y="230" as="sourcePoint" />
            <mxPoint x="410" y="280" as="targetPoint" />
          </mxGeometry>
        </mxCell>
        <mxCell id="n4QECdP25EKG80CjT-cM-11" style="rounded=0;orthogonalLoop=1;jettySize=auto;html=1;exitX=0.551;exitY=1.002;exitDx=0;exitDy=0;exitPerimeter=0;" edge="1" parent="1" source="n4QECdP25EKG80CjT-cM-2">
          <mxGeometry relative="1" as="geometry">
            <mxPoint x="430" y="230" as="sourcePoint" />
            <mxPoint x="433" y="280" as="targetPoint" />
          </mxGeometry>
        </mxCell>
        <mxCell id="n4QECdP25EKG80CjT-cM-14" style="edgeStyle=orthogonalEdgeStyle;rounded=0;orthogonalLoop=1;jettySize=auto;html=1;exitX=0.5;exitY=1;exitDx=0;exitDy=0;entryX=0.5;entryY=0;entryDx=0;entryDy=0;" edge="1" parent="1" source="n4QECdP25EKG80CjT-cM-2" target="n4QECdP25EKG80CjT-cM-4">
          <mxGeometry relative="1" as="geometry" />
        </mxCell>
        <mxCell id="n4QECdP25EKG80CjT-cM-32" style="rounded=0;orthogonalLoop=1;jettySize=auto;html=1;entryX=0;entryY=0.75;entryDx=0;entryDy=0;" edge="1" parent="1" target="n4QECdP25EKG80CjT-cM-4">
          <mxGeometry relative="1" as="geometry">
            <mxPoint x="560" y="320" as="targetPoint" />
            <mxPoint x="320" y="340" as="sourcePoint" />
          </mxGeometry>
        </mxCell>
        <mxCell id="n4QECdP25EKG80CjT-cM-2" value="AWS&amp;nbsp;&lt;div&gt;API&amp;nbsp;&lt;span style=&quot;background-color: transparent; color: light-dark(rgb(0, 0, 0), rgb(255, 255, 255));&quot;&gt;Gateway&lt;/span&gt;&lt;/div&gt;" style="rounded=1;whiteSpace=wrap;html=1;fontSize=16;fontStyle=1" vertex="1" parent="1">
          <mxGeometry x="350" y="160" width="140" height="70" as="geometry" />
        </mxCell>
        <mxCell id="n4QECdP25EKG80CjT-cM-3" value="" style="shape=flexArrow;endArrow=classic;html=1;rounded=0;exitX=0.5;exitY=1;exitDx=0;exitDy=0;entryX=0.5;entryY=0;entryDx=0;entryDy=0;fillColor=#1ba1e2;strokeColor=#006EAF;" edge="1" parent="1" source="n4QECdP25EKG80CjT-cM-1" target="n4QECdP25EKG80CjT-cM-2">
          <mxGeometry width="50" height="50" relative="1" as="geometry">
            <mxPoint x="400" y="420" as="sourcePoint" />
            <mxPoint x="450" y="370" as="targetPoint" />
          </mxGeometry>
        </mxCell>
        <mxCell id="n4QECdP25EKG80CjT-cM-24" style="edgeStyle=orthogonalEdgeStyle;rounded=0;orthogonalLoop=1;jettySize=auto;html=1;exitX=0.5;exitY=1;exitDx=0;exitDy=0;entryX=0.5;entryY=0;entryDx=0;entryDy=0;curved=1;" edge="1" parent="1" source="n4QECdP25EKG80CjT-cM-4" target="n4QECdP25EKG80CjT-cM-15">
          <mxGeometry relative="1" as="geometry" />
        </mxCell>
        <mxCell id="n4QECdP25EKG80CjT-cM-25" style="edgeStyle=orthogonalEdgeStyle;rounded=0;orthogonalLoop=1;jettySize=auto;html=1;exitX=0.5;exitY=1;exitDx=0;exitDy=0;entryX=0.5;entryY=0;entryDx=0;entryDy=0;curved=1;" edge="1" parent="1" source="n4QECdP25EKG80CjT-cM-4" target="n4QECdP25EKG80CjT-cM-21">
          <mxGeometry relative="1" as="geometry" />
        </mxCell>
        <mxCell id="n4QECdP25EKG80CjT-cM-4" value="ALB&lt;div&gt;&lt;font style=&quot;font-weight: normal; font-size: 12px;&quot;&gt;Application Load Balancer&lt;/font&gt;&lt;/div&gt;" style="rounded=1;whiteSpace=wrap;html=1;fontSize=16;fontStyle=1" vertex="1" parent="1">
          <mxGeometry x="340" y="280" width="160" height="70" as="geometry" />
        </mxCell>
        <mxCell id="n4QECdP25EKG80CjT-cM-31" style="edgeStyle=orthogonalEdgeStyle;rounded=0;orthogonalLoop=1;jettySize=auto;html=1;exitX=0;exitY=0.5;exitDx=0;exitDy=0;endArrow=none;endFill=0;" edge="1" parent="1" source="n4QECdP25EKG80CjT-cM-15">
          <mxGeometry relative="1" as="geometry">
            <mxPoint x="320" y="340" as="targetPoint" />
            <Array as="points">
              <mxPoint x="320" y="405" />
            </Array>
          </mxGeometry>
        </mxCell>
        <mxCell id="n4QECdP25EKG80CjT-cM-15" value="User &amp;amp; Auth" style="rounded=1;whiteSpace=wrap;html=1;arcSize=7;fillColor=#d5e8d4;strokeColor=#82b366;" vertex="1" parent="1">
          <mxGeometry x="330" y="390" width="80" height="30" as="geometry" />
        </mxCell>
        <mxCell id="n4QECdP25EKG80CjT-cM-33" style="edgeStyle=orthogonalEdgeStyle;rounded=0;orthogonalLoop=1;jettySize=auto;html=1;exitX=0;exitY=0.5;exitDx=0;exitDy=0;endArrow=none;endFill=0;" edge="1" parent="1" source="n4QECdP25EKG80CjT-cM-16">
          <mxGeometry relative="1" as="geometry">
            <mxPoint x="310" y="330" as="targetPoint" />
          </mxGeometry>
        </mxCell>
        <mxCell id="n4QECdP25EKG80CjT-cM-16" value="Proposal Mgmt" style="rounded=1;whiteSpace=wrap;html=1;arcSize=7;fillColor=#d5e8d4;strokeColor=#82b366;" vertex="1" parent="1">
          <mxGeometry x="330" y="430" width="80" height="30" as="geometry" />
        </mxCell>
        <mxCell id="n4QECdP25EKG80CjT-cM-34" style="edgeStyle=orthogonalEdgeStyle;rounded=0;orthogonalLoop=1;jettySize=auto;html=1;exitX=0;exitY=0.5;exitDx=0;exitDy=0;endArrow=none;endFill=0;" edge="1" parent="1" source="n4QECdP25EKG80CjT-cM-17">
          <mxGeometry relative="1" as="geometry">
            <mxPoint x="300" y="320" as="targetPoint" />
          </mxGeometry>
        </mxCell>
        <mxCell id="n4QECdP25EKG80CjT-cM-65" style="edgeStyle=orthogonalEdgeStyle;rounded=0;orthogonalLoop=1;jettySize=auto;html=1;exitX=0.5;exitY=1;exitDx=0;exitDy=0;endArrow=none;endFill=0;" edge="1" parent="1" source="n4QECdP25EKG80CjT-cM-17">
          <mxGeometry relative="1" as="geometry">
            <mxPoint x="370" y="580" as="targetPoint" />
            <mxPoint x="370" y="540" as="sourcePoint" />
            <Array as="points" />
          </mxGeometry>
        </mxCell>
        <mxCell id="n4QECdP25EKG80CjT-cM-17" value="Budget Mgmt" style="rounded=1;whiteSpace=wrap;html=1;arcSize=7;fillColor=#d5e8d4;strokeColor=#82b366;" vertex="1" parent="1">
          <mxGeometry x="330" y="470" width="80" height="30" as="geometry" />
        </mxCell>
        <mxCell id="n4QECdP25EKG80CjT-cM-35" style="edgeStyle=orthogonalEdgeStyle;rounded=0;orthogonalLoop=1;jettySize=auto;html=1;exitX=1;exitY=0.5;exitDx=0;exitDy=0;endArrow=none;endFill=0;" edge="1" parent="1" source="n4QECdP25EKG80CjT-cM-21">
          <mxGeometry relative="1" as="geometry">
            <mxPoint x="520" y="340" as="targetPoint" />
            <Array as="points">
              <mxPoint x="520" y="405" />
            </Array>
          </mxGeometry>
        </mxCell>
        <mxCell id="n4QECdP25EKG80CjT-cM-21" value="Project Mgmt" style="rounded=1;whiteSpace=wrap;html=1;arcSize=7;fillColor=#d5e8d4;strokeColor=#82b366;" vertex="1" parent="1">
          <mxGeometry x="430" y="390" width="80" height="30" as="geometry" />
        </mxCell>
        <mxCell id="n4QECdP25EKG80CjT-cM-36" style="edgeStyle=orthogonalEdgeStyle;rounded=0;orthogonalLoop=1;jettySize=auto;html=1;exitX=1;exitY=0.5;exitDx=0;exitDy=0;endArrow=none;endFill=0;" edge="1" parent="1" source="n4QECdP25EKG80CjT-cM-22">
          <mxGeometry relative="1" as="geometry">
            <mxPoint x="530" y="330" as="targetPoint" />
          </mxGeometry>
        </mxCell>
        <mxCell id="n4QECdP25EKG80CjT-cM-22" value="Finance Mgmt" style="rounded=1;whiteSpace=wrap;html=1;arcSize=7;fillColor=#d5e8d4;strokeColor=#82b366;" vertex="1" parent="1">
          <mxGeometry x="430" y="430" width="80" height="30" as="geometry" />
        </mxCell>
        <mxCell id="n4QECdP25EKG80CjT-cM-37" style="edgeStyle=orthogonalEdgeStyle;rounded=0;orthogonalLoop=1;jettySize=auto;html=1;exitX=1;exitY=0.5;exitDx=0;exitDy=0;endArrow=none;endFill=0;" edge="1" parent="1" source="n4QECdP25EKG80CjT-cM-23">
          <mxGeometry relative="1" as="geometry">
            <mxPoint x="540" y="320" as="targetPoint" />
          </mxGeometry>
        </mxCell>
        <mxCell id="n4QECdP25EKG80CjT-cM-63" style="edgeStyle=orthogonalEdgeStyle;rounded=0;orthogonalLoop=1;jettySize=auto;html=1;exitX=0.5;exitY=1;exitDx=0;exitDy=0;endArrow=none;endFill=0;" edge="1" parent="1" source="n4QECdP25EKG80CjT-cM-23">
          <mxGeometry relative="1" as="geometry">
            <mxPoint x="470" y="580" as="targetPoint" />
            <mxPoint x="470" y="540" as="sourcePoint" />
            <Array as="points" />
          </mxGeometry>
        </mxCell>
        <mxCell id="n4QECdP25EKG80CjT-cM-23" value="Vendor Mgmt" style="rounded=1;whiteSpace=wrap;html=1;arcSize=7;fillColor=#d5e8d4;strokeColor=#82b366;" vertex="1" parent="1">
          <mxGeometry x="430" y="470" width="80" height="30" as="geometry" />
        </mxCell>
        <mxCell id="n4QECdP25EKG80CjT-cM-38" style="rounded=0;orthogonalLoop=1;jettySize=auto;html=1;entryX=0;entryY=0.5;entryDx=0;entryDy=0;" edge="1" parent="1" target="n4QECdP25EKG80CjT-cM-4">
          <mxGeometry relative="1" as="geometry">
            <mxPoint x="384" y="230" as="targetPoint" />
            <mxPoint x="310" y="330" as="sourcePoint" />
          </mxGeometry>
        </mxCell>
        <mxCell id="n4QECdP25EKG80CjT-cM-39" style="rounded=0;orthogonalLoop=1;jettySize=auto;html=1;entryX=0;entryY=0.25;entryDx=0;entryDy=0;" edge="1" parent="1" target="n4QECdP25EKG80CjT-cM-4">
          <mxGeometry relative="1" as="geometry">
            <mxPoint x="374" y="230" as="targetPoint" />
            <mxPoint x="300" y="320" as="sourcePoint" />
          </mxGeometry>
        </mxCell>
        <mxCell id="n4QECdP25EKG80CjT-cM-40" value="" style="endArrow=classic;html=1;rounded=0;entryX=1;entryY=0.75;entryDx=0;entryDy=0;" edge="1" parent="1" target="n4QECdP25EKG80CjT-cM-4">
          <mxGeometry width="50" height="50" relative="1" as="geometry">
            <mxPoint x="520" y="340" as="sourcePoint" />
            <mxPoint x="590" y="330" as="targetPoint" />
          </mxGeometry>
        </mxCell>
        <mxCell id="n4QECdP25EKG80CjT-cM-41" value="" style="endArrow=classic;html=1;rounded=0;entryX=1;entryY=0.5;entryDx=0;entryDy=0;" edge="1" parent="1" target="n4QECdP25EKG80CjT-cM-4">
          <mxGeometry width="50" height="50" relative="1" as="geometry">
            <mxPoint x="530" y="330" as="sourcePoint" />
            <mxPoint x="640" y="370" as="targetPoint" />
          </mxGeometry>
        </mxCell>
        <mxCell id="n4QECdP25EKG80CjT-cM-42" value="" style="endArrow=classic;html=1;rounded=0;entryX=1;entryY=0.25;entryDx=0;entryDy=0;" edge="1" parent="1" target="n4QECdP25EKG80CjT-cM-4">
          <mxGeometry width="50" height="50" relative="1" as="geometry">
            <mxPoint x="540" y="320" as="sourcePoint" />
            <mxPoint x="610" y="340" as="targetPoint" />
          </mxGeometry>
        </mxCell>
        <mxCell id="n4QECdP25EKG80CjT-cM-55" style="edgeStyle=orthogonalEdgeStyle;rounded=0;orthogonalLoop=1;jettySize=auto;html=1;exitX=0.5;exitY=0;exitDx=0;exitDy=0;endArrow=none;endFill=0;" edge="1" parent="1" source="n4QECdP25EKG80CjT-cM-44">
          <mxGeometry relative="1" as="geometry">
            <mxPoint x="350" y="590" as="targetPoint" />
            <Array as="points">
              <mxPoint x="148" y="590" />
              <mxPoint x="280" y="590" />
            </Array>
          </mxGeometry>
        </mxCell>
        <mxCell id="n4QECdP25EKG80CjT-cM-44" value="Data Sync" style="rounded=1;whiteSpace=wrap;html=1;arcSize=7;fillColor=#dae8fc;strokeColor=#6c8ebf;" vertex="1" parent="1">
          <mxGeometry x="110" y="610" width="75" height="30" as="geometry" />
        </mxCell>
        <mxCell id="n4QECdP25EKG80CjT-cM-59" style="edgeStyle=orthogonalEdgeStyle;rounded=0;orthogonalLoop=1;jettySize=auto;html=1;exitX=0.5;exitY=1;exitDx=0;exitDy=0;endArrow=none;endFill=0;" edge="1" parent="1" source="n4QECdP25EKG80CjT-cM-45">
          <mxGeometry relative="1" as="geometry">
            <mxPoint x="350" y="700" as="targetPoint" />
            <Array as="points">
              <mxPoint x="148" y="700" />
            </Array>
          </mxGeometry>
        </mxCell>
        <mxCell id="n4QECdP25EKG80CjT-cM-45" value="Recon" style="rounded=1;whiteSpace=wrap;html=1;arcSize=7;fillColor=#dae8fc;strokeColor=#6c8ebf;" vertex="1" parent="1">
          <mxGeometry x="110" y="650" width="75" height="30" as="geometry" />
        </mxCell>
        <mxCell id="n4QECdP25EKG80CjT-cM-54" style="edgeStyle=orthogonalEdgeStyle;rounded=0;orthogonalLoop=1;jettySize=auto;html=1;exitX=0.5;exitY=0;exitDx=0;exitDy=0;endArrow=none;endFill=0;" edge="1" parent="1" source="n4QECdP25EKG80CjT-cM-46">
          <mxGeometry relative="1" as="geometry">
            <mxPoint x="340" y="600" as="targetPoint" />
            <Array as="points">
              <mxPoint x="233" y="600" />
              <mxPoint x="280" y="600" />
            </Array>
          </mxGeometry>
        </mxCell>
        <mxCell id="n4QECdP25EKG80CjT-cM-46" value="Batch Processing" style="rounded=1;whiteSpace=wrap;html=1;arcSize=7;fillColor=#dae8fc;strokeColor=#6c8ebf;" vertex="1" parent="1">
          <mxGeometry x="195" y="610" width="75" height="30" as="geometry" />
        </mxCell>
        <mxCell id="n4QECdP25EKG80CjT-cM-58" style="edgeStyle=orthogonalEdgeStyle;rounded=0;orthogonalLoop=1;jettySize=auto;html=1;exitX=0.5;exitY=1;exitDx=0;exitDy=0;endArrow=none;endFill=0;" edge="1" parent="1" source="n4QECdP25EKG80CjT-cM-47">
          <mxGeometry relative="1" as="geometry">
            <mxPoint x="340" y="690" as="targetPoint" />
            <Array as="points">
              <mxPoint x="233" y="690" />
            </Array>
          </mxGeometry>
        </mxCell>
        <mxCell id="n4QECdP25EKG80CjT-cM-47" value="Archival" style="rounded=1;whiteSpace=wrap;html=1;arcSize=7;fillColor=#dae8fc;strokeColor=#6c8ebf;" vertex="1" parent="1">
          <mxGeometry x="195" y="650" width="75" height="30" as="geometry" />
        </mxCell>
        <mxCell id="n4QECdP25EKG80CjT-cM-69" style="edgeStyle=orthogonalEdgeStyle;rounded=0;orthogonalLoop=1;jettySize=auto;html=1;exitX=0.5;exitY=0;exitDx=0;exitDy=0;endArrow=none;endFill=0;" edge="1" parent="1" source="n4QECdP25EKG80CjT-cM-48">
          <mxGeometry relative="1" as="geometry">
            <mxPoint x="500" y="600" as="targetPoint" />
            <Array as="points">
              <mxPoint x="608" y="600" />
            </Array>
          </mxGeometry>
        </mxCell>
        <mxCell id="n4QECdP25EKG80CjT-cM-48" value="NetSuit" style="rounded=1;whiteSpace=wrap;html=1;arcSize=7;fillColor=#ffe6cc;strokeColor=#d79b00;" vertex="1" parent="1">
          <mxGeometry x="570" y="610" width="75" height="30" as="geometry" />
        </mxCell>
        <mxCell id="n4QECdP25EKG80CjT-cM-73" style="edgeStyle=orthogonalEdgeStyle;rounded=0;orthogonalLoop=1;jettySize=auto;html=1;exitX=0.5;exitY=1;exitDx=0;exitDy=0;endArrow=none;endFill=0;" edge="1" parent="1" source="n4QECdP25EKG80CjT-cM-49">
          <mxGeometry relative="1" as="geometry">
            <mxPoint x="500" y="690" as="targetPoint" />
            <Array as="points">
              <mxPoint x="608" y="690" />
              <mxPoint x="500" y="690" />
            </Array>
          </mxGeometry>
        </mxCell>
        <mxCell id="n4QECdP25EKG80CjT-cM-49" value="Outlook" style="rounded=1;whiteSpace=wrap;html=1;arcSize=7;fillColor=#ffe6cc;strokeColor=#d79b00;" vertex="1" parent="1">
          <mxGeometry x="570" y="650" width="75" height="30" as="geometry" />
        </mxCell>
        <mxCell id="n4QECdP25EKG80CjT-cM-70" style="edgeStyle=orthogonalEdgeStyle;rounded=0;orthogonalLoop=1;jettySize=auto;html=1;exitX=0.5;exitY=0;exitDx=0;exitDy=0;endArrow=none;endFill=0;" edge="1" parent="1" source="n4QECdP25EKG80CjT-cM-50">
          <mxGeometry relative="1" as="geometry">
            <mxPoint x="490" y="590" as="targetPoint" />
            <Array as="points">
              <mxPoint x="693" y="590" />
            </Array>
          </mxGeometry>
        </mxCell>
        <mxCell id="n4QECdP25EKG80CjT-cM-50" value="Boomi" style="rounded=1;whiteSpace=wrap;html=1;arcSize=7;fillColor=#ffe6cc;strokeColor=#d79b00;" vertex="1" parent="1">
          <mxGeometry x="655" y="610" width="75" height="30" as="geometry" />
        </mxCell>
        <mxCell id="n4QECdP25EKG80CjT-cM-74" style="edgeStyle=orthogonalEdgeStyle;rounded=0;orthogonalLoop=1;jettySize=auto;html=1;exitX=0.5;exitY=1;exitDx=0;exitDy=0;endArrow=none;endFill=0;" edge="1" parent="1" source="n4QECdP25EKG80CjT-cM-51">
          <mxGeometry relative="1" as="geometry">
            <mxPoint x="490" y="700" as="targetPoint" />
            <Array as="points">
              <mxPoint x="693" y="700" />
            </Array>
          </mxGeometry>
        </mxCell>
        <mxCell id="n4QECdP25EKG80CjT-cM-51" value="BI Platform" style="rounded=1;whiteSpace=wrap;html=1;arcSize=7;fillColor=#ffe6cc;strokeColor=#d79b00;" vertex="1" parent="1">
          <mxGeometry x="655" y="650" width="75" height="30" as="geometry" />
        </mxCell>
        <mxCell id="n4QECdP25EKG80CjT-cM-52" value="" style="shape=flexArrow;endArrow=classic;html=1;rounded=0;exitX=1;exitY=0.5;exitDx=0;exitDy=0;fillColor=#ffe6cc;strokeColor=#d79b00;" edge="1" parent="1" source="n4QECdP25EKG80CjT-cM-43">
          <mxGeometry width="50" height="50" relative="1" as="geometry">
            <mxPoint x="510" y="600" as="sourcePoint" />
            <mxPoint x="550" y="645" as="targetPoint" />
          </mxGeometry>
        </mxCell>
        <mxCell id="n4QECdP25EKG80CjT-cM-53" value="" style="shape=flexArrow;endArrow=classic;html=1;rounded=0;exitX=0;exitY=0.5;exitDx=0;exitDy=0;fillColor=#dae8fc;strokeColor=#6c8ebf;" edge="1" parent="1" source="n4QECdP25EKG80CjT-cM-43">
          <mxGeometry width="50" height="50" relative="1" as="geometry">
            <mxPoint x="530" y="700" as="sourcePoint" />
            <mxPoint x="290" y="645" as="targetPoint" />
          </mxGeometry>
        </mxCell>
        <mxCell id="n4QECdP25EKG80CjT-cM-56" value="" style="endArrow=classic;html=1;rounded=0;" edge="1" parent="1" target="n4QECdP25EKG80CjT-cM-43">
          <mxGeometry width="50" height="50" relative="1" as="geometry">
            <mxPoint x="340" y="600" as="sourcePoint" />
            <mxPoint x="420" y="570" as="targetPoint" />
          </mxGeometry>
        </mxCell>
        <mxCell id="n4QECdP25EKG80CjT-cM-57" value="" style="endArrow=classic;html=1;rounded=0;" edge="1" parent="1" target="n4QECdP25EKG80CjT-cM-43">
          <mxGeometry width="50" height="50" relative="1" as="geometry">
            <mxPoint x="350" y="590" as="sourcePoint" />
            <mxPoint x="420" y="570" as="targetPoint" />
          </mxGeometry>
        </mxCell>
        <mxCell id="n4QECdP25EKG80CjT-cM-60" value="" style="endArrow=classic;html=1;rounded=0;" edge="1" parent="1" target="n4QECdP25EKG80CjT-cM-43">
          <mxGeometry width="50" height="50" relative="1" as="geometry">
            <mxPoint x="340" y="690" as="sourcePoint" />
            <mxPoint x="420" y="610" as="targetPoint" />
          </mxGeometry>
        </mxCell>
        <mxCell id="n4QECdP25EKG80CjT-cM-61" value="" style="endArrow=classic;html=1;rounded=0;" edge="1" parent="1" target="n4QECdP25EKG80CjT-cM-43">
          <mxGeometry width="50" height="50" relative="1" as="geometry">
            <mxPoint x="350" y="700" as="sourcePoint" />
            <mxPoint x="420" y="610" as="targetPoint" />
          </mxGeometry>
        </mxCell>
        <mxCell id="n4QECdP25EKG80CjT-cM-67" value="" style="endArrow=classic;html=1;rounded=0;" edge="1" parent="1" target="n4QECdP25EKG80CjT-cM-43">
          <mxGeometry width="50" height="50" relative="1" as="geometry">
            <mxPoint x="470" y="580" as="sourcePoint" />
            <mxPoint x="420" y="580" as="targetPoint" />
          </mxGeometry>
        </mxCell>
        <mxCell id="n4QECdP25EKG80CjT-cM-68" value="" style="endArrow=classic;html=1;rounded=0;" edge="1" parent="1" target="n4QECdP25EKG80CjT-cM-43">
          <mxGeometry width="50" height="50" relative="1" as="geometry">
            <mxPoint x="370" y="580" as="sourcePoint" />
            <mxPoint x="520" y="540" as="targetPoint" />
          </mxGeometry>
        </mxCell>
        <mxCell id="n4QECdP25EKG80CjT-cM-71" value="" style="endArrow=classic;html=1;rounded=0;" edge="1" parent="1" target="n4QECdP25EKG80CjT-cM-43">
          <mxGeometry width="50" height="50" relative="1" as="geometry">
            <mxPoint x="500" y="600" as="sourcePoint" />
            <mxPoint x="510" y="620" as="targetPoint" />
          </mxGeometry>
        </mxCell>
        <mxCell id="n4QECdP25EKG80CjT-cM-72" value="" style="endArrow=classic;html=1;rounded=0;" edge="1" parent="1" target="n4QECdP25EKG80CjT-cM-43">
          <mxGeometry width="50" height="50" relative="1" as="geometry">
            <mxPoint x="490" y="590" as="sourcePoint" />
            <mxPoint x="510" y="620" as="targetPoint" />
          </mxGeometry>
        </mxCell>
        <mxCell id="n4QECdP25EKG80CjT-cM-75" value="" style="endArrow=classic;html=1;rounded=0;" edge="1" parent="1" target="n4QECdP25EKG80CjT-cM-43">
          <mxGeometry width="50" height="50" relative="1" as="geometry">
            <mxPoint x="500" y="690" as="sourcePoint" />
            <mxPoint x="600" y="600" as="targetPoint" />
          </mxGeometry>
        </mxCell>
        <mxCell id="n4QECdP25EKG80CjT-cM-76" value="" style="endArrow=classic;html=1;rounded=0;" edge="1" parent="1" target="n4QECdP25EKG80CjT-cM-43">
          <mxGeometry width="50" height="50" relative="1" as="geometry">
            <mxPoint x="490" y="700" as="sourcePoint" />
            <mxPoint x="600" y="600" as="targetPoint" />
          </mxGeometry>
        </mxCell>
        <mxCell id="n4QECdP25EKG80CjT-cM-79" value="Schedule Tasks/ Quarts" style="text;html=1;align=left;verticalAlign=middle;whiteSpace=wrap;rounded=0;fontSize=14;fontStyle=1" vertex="1" parent="1">
          <mxGeometry x="90" y="550" width="170" height="30" as="geometry" />
        </mxCell>
        <mxCell id="n4QECdP25EKG80CjT-cM-80" value="Event-Driven Choreography" style="text;html=1;align=center;verticalAlign=middle;whiteSpace=wrap;rounded=0;fontSize=14;fontStyle=1" vertex="1" parent="1">
          <mxGeometry x="282" y="810" width="280" height="30" as="geometry" />
        </mxCell>
        <mxCell id="n4QECdP25EKG80CjT-cM-84" value="Integration Services" style="text;html=1;align=left;verticalAlign=middle;whiteSpace=wrap;rounded=0;fontSize=14;fontStyle=1" vertex="1" parent="1">
          <mxGeometry x="570" y="550" width="170" height="30" as="geometry" />
        </mxCell>
        <mxCell id="n4QECdP25EKG80CjT-cM-92" style="edgeStyle=orthogonalEdgeStyle;rounded=0;orthogonalLoop=1;jettySize=auto;html=1;exitX=0.5;exitY=0;exitDx=0;exitDy=0;entryX=0.5;entryY=1;entryDx=0;entryDy=0;" edge="1" parent="1" source="n4QECdP25EKG80CjT-cM-91" target="n4QECdP25EKG80CjT-cM-43">
          <mxGeometry relative="1" as="geometry" />
        </mxCell>
        <mxCell id="n4QECdP25EKG80CjT-cM-91" value="&lt;font style=&quot;font-size: 16px;&quot;&gt;&lt;b style=&quot;&quot;&gt;AWS MQ (RabbitMQ)&lt;/b&gt;&lt;/font&gt;&lt;div&gt;External Messaging&lt;/div&gt;" style="rounded=1;whiteSpace=wrap;html=1;" vertex="1" parent="1">
          <mxGeometry x="320" y="760" width="200" height="50" as="geometry" />
        </mxCell>
        <mxCell id="n4QECdP25EKG80CjT-cM-93" value="" style="shape=flexArrow;endArrow=classic;html=1;rounded=0;exitX=0.5;exitY=0;exitDx=0;exitDy=0;fillColor=#d5e8d4;strokeColor=#82b366;entryX=0.5;entryY=1;entryDx=0;entryDy=0;" edge="1" parent="1" source="n4QECdP25EKG80CjT-cM-43" target="n4QECdP25EKG80CjT-cM-82">
          <mxGeometry width="50" height="50" relative="1" as="geometry">
            <mxPoint x="680" y="790" as="sourcePoint" />
            <mxPoint x="755" y="790" as="targetPoint" />
          </mxGeometry>
        </mxCell>
        <mxCell id="n4QECdP25EKG80CjT-cM-43" value="&lt;span style=&quot;font-size: 16px;&quot;&gt;&lt;b&gt;AWS SQS&lt;/b&gt;&lt;/span&gt;&lt;div&gt;&lt;font style=&quot;font-size: 14px;&quot;&gt;Event Bridge&lt;/font&gt;&lt;/div&gt;" style="ellipse;whiteSpace=wrap;html=1;aspect=fixed;strokeWidth=4;strokeColor=light-dark(#1287c6, #537494);" vertex="1" parent="1">
          <mxGeometry x="365" y="590" width="110" height="110" as="geometry" />
        </mxCell>
        <mxCell id="DM_DKcFAbGSOWpz70wjw-1" value="&amp;nbsp;Microservices" style="text;html=1;align=left;verticalAlign=middle;whiteSpace=wrap;rounded=0;fontSize=14;fontStyle=1;rotation=-90;" vertex="1" parent="1">
          <mxGeometry x="230" y="435" width="100" height="30" as="geometry" />
        </mxCell>
        <mxCell id="DM_DKcFAbGSOWpz70wjw-3" value="" style="sketch=0;points=[[0,0,0],[0.25,0,0],[0.5,0,0],[0.75,0,0],[1,0,0],[0,1,0],[0.25,1,0],[0.5,1,0],[0.75,1,0],[1,1,0],[0,0.25,0],[0,0.5,0],[0,0.75,0],[1,0.25,0],[1,0.5,0],[1,0.75,0]];outlineConnect=0;fontColor=#232F3E;fillColor=#FF8000;strokeColor=#ffffff;dashed=0;verticalLabelPosition=bottom;verticalAlign=top;align=center;html=1;fontSize=12;fontStyle=0;aspect=fixed;shape=mxgraph.aws4.resourceIcon;resIcon=mxgraph.aws4.api_gateway;" vertex="1" parent="1">
          <mxGeometry x="355" y="164" width="30" height="30" as="geometry" />
        </mxCell>
        <mxCell id="DM_DKcFAbGSOWpz70wjw-5" value="" style="outlineConnect=0;dashed=0;verticalLabelPosition=bottom;verticalAlign=top;align=center;html=1;shape=mxgraph.aws3.application_load_balancer;fillColor=#F58534;gradientColor=none;" vertex="1" parent="1">
          <mxGeometry x="350" y="285" width="30" height="30" as="geometry" />
        </mxCell>
        <mxCell id="DM_DKcFAbGSOWpz70wjw-6" value="" style="points=[];aspect=fixed;html=1;align=center;shadow=0;dashed=0;fillColor=#FF6A00;strokeColor=none;shape=mxgraph.alibaba_cloud.eventbridge;" vertex="1" parent="1">
          <mxGeometry x="405" y="596" width="30" height="30" as="geometry" />
        </mxCell>
      </root>
    </mxGraphModel>
  </diagram>
  <diagram id="OzCRNd5auISeyxwAKgYj" name="Page-3">
    <mxGraphModel dx="1419" dy="756" grid="1" gridSize="10" guides="1" tooltips="1" connect="1" arrows="1" fold="1" page="1" pageScale="1" pageWidth="850" pageHeight="1100" math="0" shadow="0">
      <root>
        <mxCell id="0" />
        <mxCell id="1" parent="0" />
        <mxCell id="YTOxkbfLHKp53P6Xq-UA-14" value="" style="ellipse;whiteSpace=wrap;html=1;aspect=fixed;strokeColor=#999999;" vertex="1" parent="1">
          <mxGeometry x="253.2" y="490" width="80" height="80" as="geometry" />
        </mxCell>
        <mxCell id="Y5gl3h6JInBnKcC-vQUB-1" value="" style="dashed=0;outlineConnect=0;html=1;align=center;labelPosition=center;verticalLabelPosition=bottom;verticalAlign=top;shape=mxgraph.weblogos.java" vertex="1" parent="1">
          <mxGeometry x="276" y="497.5" width="34.4" height="65" as="geometry" />
        </mxCell>
        <mxCell id="YTOxkbfLHKp53P6Xq-UA-15" value="" style="ellipse;whiteSpace=wrap;html=1;aspect=fixed;strokeColor=#999999;" vertex="1" parent="1">
          <mxGeometry x="318" y="540" width="80" height="80" as="geometry" />
        </mxCell>
        <mxCell id="Y5gl3h6JInBnKcC-vQUB-4" value="" style="image;aspect=fixed;html=1;points=[];align=center;fontSize=12;image=img/lib/azure2/compute/Azure_Spring_Cloud.svg;" vertex="1" parent="1">
          <mxGeometry x="333.2" y="555" width="50" height="50" as="geometry" />
        </mxCell>
        <mxCell id="YTOxkbfLHKp53P6Xq-UA-16" value="" style="ellipse;whiteSpace=wrap;html=1;aspect=fixed;strokeColor=#999999;" vertex="1" parent="1">
          <mxGeometry x="340" y="620" width="80" height="80" as="geometry" />
        </mxCell>
        <mxCell id="Y5gl3h6JInBnKcC-vQUB-3" value="" style="image;sketch=0;aspect=fixed;html=1;points=[];align=center;fontSize=12;image=img/lib/mscae/Azure_Database_for_PostgreSQL_servers.svg;" vertex="1" parent="1">
          <mxGeometry x="357.20000000000005" y="630" width="45.6" height="60" as="geometry" />
        </mxCell>
        <mxCell id="YTOxkbfLHKp53P6Xq-UA-17" value="" style="ellipse;whiteSpace=wrap;html=1;aspect=fixed;strokeColor=#999999;" vertex="1" parent="1">
          <mxGeometry x="260" y="600" width="80" height="80" as="geometry" />
        </mxCell>
        <mxCell id="YTOxkbfLHKp53P6Xq-UA-18" value="" style="ellipse;whiteSpace=wrap;html=1;aspect=fixed;strokeColor=#999999;" vertex="1" parent="1">
          <mxGeometry x="283" y="680" width="80" height="80" as="geometry" />
        </mxCell>
        <mxCell id="YTOxkbfLHKp53P6Xq-UA-19" value="" style="ellipse;whiteSpace=wrap;html=1;aspect=fixed;strokeColor=#999999;" vertex="1" parent="1">
          <mxGeometry x="363" y="699" width="80" height="80" as="geometry" />
        </mxCell>
        <mxCell id="YTOxkbfLHKp53P6Xq-UA-20" value="" style="ellipse;whiteSpace=wrap;html=1;aspect=fixed;strokeColor=#999999;" vertex="1" parent="1">
          <mxGeometry x="420" y="639" width="80" height="80" as="geometry" />
        </mxCell>
        <mxCell id="YTOxkbfLHKp53P6Xq-UA-11" value="" style="shape=image;verticalLabelPosition=bottom;labelBackgroundColor=default;verticalAlign=top;aspect=fixed;imageAspect=0;image=data:image/png,iVBORw0KGgoAAAANSUhEUgAAAgAAAAIACAYAAAD0eNT6AAAACXBIWXMAAAsTAAALEwEAmpwYAAAXSklEQVR4nO3dX4ild33H8RNr7T8sWkSsVFqkRSgULIIWMZ4/JhJBL7yYG7FzTrYlt7n0cnPprd5562WgmJlIoAiFFgoKBaFQkBaxWNLNOaPESv+p1afszu7smmQ3O7O/5/n9fs/n9YLP7cxJcjjPeyb7ZRcLAAAAAAAAAAAAAAAAAAAAAAAAAAAAAAAAAAAAAAAAAAAAAAAAAAAAAACgXcebVz77uY/96J21XwcAMKHd5vD8dr3/4W5zePboaPiV2q8HAJgoAHabw3B73z5eHz5e+zUBANMGwK1t1/sXt8sbf1D7tQEAEwbAeQQc/mu73j939Gff/43arxEAmCgALkJgs/+34/X+uPbrBAAmDICLrfd/s3vilT+p/XoBgCkD4Py3AT/bbfZfeWb58rtqv24AYKIAuOcPCTobBIC0AHA2CADZAeBsEABSA+Des8Ht8nu/XvufCQCYKACcDQJAcAA4GwSA5ABwNggAmQFwzx8SdDYIAGkBcM+cDQJAYADc+Y2As0EASAuA8whwNggAcQFwEQLOBgEgLwAu5mwQAAIDwNkgAGQGwEUIOBsEgLwAuGfOBgEgMADu/EbA2SAApAXAeQQ4GwSAuAC4CAFngwCQFwAXczYIAIEB4GwQADID4CIEnA0CQF4A3DNngwAQGAB3fiPw4rX1v/9+7X+3ANCsOQbAeQQ4GwSAuAC4CAFngwCQFwAXczYIAIEB4GwQADID4CIEnA0CkC4xAO6Zs0EAMoUHwJ3fCDgbBCCLALgTAc4GAQgiAF4TAs4GAUggAO4zZ4MAzJkAuP+cDQIwWwLgIULA2SAAcyMALjVngwDMgwC4/JwNAtA9AXDVCHA2CEDHBMAjhoCzQQB6JAAKzdkgAD0RAOXmbBCAbgiAEULA2SAArRMAo+7bu83h8dr/jQHgdQTA+HM2CEBzBMBUEeBsEICGCICJQ8DZIAAtEACV5mwQgJoEQL05GwSgGgFQf84GAZicAGhqzgYBmIYAaG/OBgEYnQBoc84GARiVAGh7zgYBGIUA6GTOBgEoSQD0M2eDABQjAPqbs0EAHpkA6HrOBgG4GgHQ/5wNAnBpAmAeczYIwKUIgHnN2SAAD0UAzHTOBgF4EAEw3zkbBOC+BMD852wQgNcRAFFzNgjAOQGQN2eDAAiA0DkbBAgnAOJ3VPs9CEAFAiB+AgAgkQCInwAASCQA4icAABIJgPgJAIBEAiB+AgAgkQCInwAASCQA4icAABIJgPgJAIBEAiB+AgAgkQCIX/EAuPnXD19fDm8t/XWBTMvl199T+zXMkgCIX/EAuPk1t5v9d443h0+V/tpAjg996Cu/ulq98OxyefIftV/LLAmA+I0SAPf+zYNPf+KV95f+HsC8LZcvPLFcnv7TanU63Fzt1zNLAiB+owbAra33P9lt9l+69tGzt5f+XsC8LJcnf7hanT5/58EvAEYkAOI3fgDc3na9f/l4vT9eLIbHSn9PoG9PPvnXv7Vcnjy3XJ7872sf/gJgJAIgfpMFwMXW+289vbrxkdLfF+jR8NhyeXK0Wp1+/40e/AJgRAIgftMHwPlvA36+2xy++vknb7y79PcH+rBef/1Dy+Xp3z/owS8ARiQA4lclAO5u/+pus//C0dHwttKvA2j3rG+5PP3Kcnn684d5+AuAkQiA+FUOgPM5G4Sss77VQz74BcCIBED8mgiAO3M2CBlnfSsBUJ8AiF9TAXBrzgZhbmd9L171wS8ARiQA4tdeANyes0GY71nfSgDUJwDi12wAXMzZIHRkeGy9fvF4tTq5UeLBLwBGJADi134AOBuE2Z31rQRAfQIgfl0EwN05G4Q5nPWtBEB9AiB+nQXA+ZwNQt9nfSsBUJ8AiF+XAXBnzgahz7O+lQCoTwDEr+sAuDVngzCZj3/8xT8qcdYnABogAOLXfwDcnrNB6OesbyUA6hMA8ZtNAFzM2SA0f9a3EgD1CYD4zS8AnA1C82d9KwFQnwCI3ywD4O6cDUKLZ30rAVCfAIjfzAPgfM4Goa2zvpUAqE8AxC8iAO7M2SC0cda3EgD1CYD4RQXArTkbhOpnfSsBUJ8AiF9eANyes0GS1T7rWwmA+gRA/GID4GLOBonSxlnfSgDUJwDiJwCcDRKipbO+lQCoTwDETwD80pwNMj8tnvWtBEB9AiB+AuAN5myQOWj5rG8lAOoTAPETAA+Ys0F61fpZ30oA1CcA4icA3mzOBulIL2d9KwFQnwCInwB4yDkbpGW9nfWtBEB9AiB+AuCyczZIU/o861sJgPoEQPwEwBXmbJAW9HzWtxIA9QmA+AmAR5qzQaY3h7O+lQCoTwDETwAUmLNBpjCns76VAKhPAMRPABScs0HGMrezvpUAqE8AxE8AlJ6zQQqa61nfSgDUJwDiJwBGmrNBHsXcz/pWAqA+ARA/ATD2nA1yKRlnfSsBUJ8AiJ8AmGDOBnkYSWd9KwFQnwCInwCYdM4Geb3Es76VAKhPAMRPAFSYs0HSz/pWAqA+ARA/AVBxzgZzpZ/1rQRAfQIgfgKg9pwNRnHWdyoAWiEA4icAGpmzwXlz1ncqAFojAOInAFqbs8GZcda3EgBtEgDxEwANztngPDjrOxUALRMA8RMATc/ZYI+c9Z0KgB4IgPgJgA7mbLAPzvpOBUBPBED8BEBHczbYLmd9pwKgNwIgfgKgtzkbbIqzvlMB0CsBED8B0OmcDdblrE8AdE8AxE8A9D5ngxNz1rcSAPMgAOInAGYwZ4PTcNZ3KgDmRADETwDMas4Gx/D443/1u876TgXA3AiA+AmAGc7ZYBnO+trZgvIEQPwEwIznbPDqnPW1tQXlCYD4CYC5z9ngpTjra3MLyhMA8RMAIXM2+GDO+tregvIEQPwEQNqcDb6Gs74etqA8ARA/ARA4Z4PnnPX1swXlCYD4CYDoZZ4NOuvrbwvK220OX67/IWQVJwAs5mzQWV+/WzCO3ebsM9vN4V9rfwhZlQkAizgbdNbX9xaM55lPv/yb2/X+ud3m8D+1P4Rs0gkAm/XZoLO+eWzB+Haf/OH7bv7hoOofQjbVBIDN8mzQWd+8tmA6x5uz9XZ9+MfaH0I2+gSAzexs0FnfHLdgWteXw1u367NntpvDWfUPIRtrAsBmczborG++W1DHX3zyR79z8/8J7tb7/6v9QWTFJwCs+7NBZ33z34K6tsv9B7fr/d/V/xCyghMA1u3ZoLO+nC1og7PBWU0AWJdng876sragHc4GZzMBYF2dDTrry9yC9vzl8ge/52yw6wkA6+Js0Flf9ha0y9lgtxMAVnpfXozAWV/2FrTN2WCXEwBWes8vRlD7AWSnAoA352ywqwkAKz0BYIMACOdssIsJACs9AWCDAOAWZ4NNTwBY6QkAGwQAF5wNNjsBYKUnAGwQALyOs8HmJgCs9ASADQKA+3I22MwEgJWeALBBAPBAzgabmACw0hMANggAHoqzwaoTAFZ6AsAGAcClOBusMgFgpScATABwNc4GJ50AsNITADYIAK7M2eBkEwBWegLABgHAI3M2OPoEgJWeALBBAFCMs8HRJgCs9ASADQKAopwNjjIBYKUnAGwQAIzC2WDRCQArPQFggwBgVM4Gi0wAWOkJABsEAJNwNvhIEwBWegLABgHAZJwNXnkCwEpPANggAJics8FLTwBY6QkAGwQA1TgbfOgJACs9AWCDAKAqZ4MPNQFgpScAbBAANMHZ4AMnAKz0BIANAoCmOBt8wwkAKz0BYIMAoEnOBn9pAsBKTwDYIABolrPBiwkAKz0BYIMAoHnOBgWAFZ8AsEEA0I3gs0EBYKUnAGwQAHQl9GxQAFjpCQAbBABdCjsbFABWegLABgFA10LOBgWAlZ4AsEEAMAszPxsUAFZ6AsAGAcBszPhsUABY6QkAGwQAszPDs0EBYKUnAGwQAMzWjM4GBYCVngCwQQAwazM5GxQAVnoCwAYBQITOzwYFgJWeALBBABCl07NBAWClJwBsEABE6uxsUABY6QkAGwQAsTo6GxQAVnoCwAYBQLwOzgYFgJWeALBBAED7Z4MCwEpPANggAKD9s0EBYKUnAGwQAND+2aAAsNITADYIAHiTs8HdZv+3lT+sBYCVngCwQQBA+2eDAsBKTwDYIACg/bNBAWClJwBsEADQ/tmgALDSEwA2CABo/2xQAFjpCQAbBAC0fzYoAKz0BIANAgDaPxsUAFZ6AsAGAQDtnw0KACs9AWCDAICRzgZ3m8P3Cn1YCwArPQFggwCA9s8GBYCVngCwQQBA+2eDAsBKTwDYIACg/bNBAWClJwBsEADQ/tmgALDSEwA2CABo/2xQAFjpCQAbBAC0fzYoAKz0BIANAgDaPxsUAFZ6AsAGAQDtnQ3+92s+rAWAlZ4AsEEAQPtngwLASk8A2CAAoP2zQQFgAsCa3wIoezb4zPLld5X+ugIgfgLABgEAgQRA/ASADQIAAgmA+AkAGwQABBIA8RMANggACCQA4icAbBAAEEgAxE8A2CAAIJAAiJ8AsEEAQCABED8BYIMAgEACIH4CwAYBAIEEQPwEgA0CAAIJgPgJABsEAAQ6Ohrettscnt1u9j9u4GFkAsC63sk/L5cnnx7jPQWM5NoTZ+89/5sH979o4KFkAsA62nJ58p/L5clzTz310q+N8X4CJnC8+cGHt5vDNxt4MJkAsOZ38ovV6uSry+XX3zPG+wiY2PXrw1uO1/vj3fqwb+ABZQLAGtxyefIP6/XXPjrG+weobLt89R3b9eGLu/X+Jw08qEwAWBM7ubFenzyzWFx/yxjvHaAh19ZnH9it9y818LAyAWD19tPl8uRLTz310m+P8Z4BGrbbnH1muz58t4GHlgkAm3bf2Gxe+OMx3itAJ5wNzm4CwIb7z1kf8BrOBmczAWDDa+esD3hTzga7nwCw4e6c9QGX4Gyw6wkAG27OWR9wZc4Gu5wAiN+Jsz6gDGeDXU0A5O6nzvqAUTgb7GICIHPfcNYHjMrZYPMTAFE7cdYHTMvZYLMTAAFbOusDanM22NwEwKx34qwPaIezwaYmAGa6pbM+oFXOBpuYAJjdTpz1AX1wNigArMic9QF9cjYoAOzKc9YHXM52uf/gn3/i8KeLRjgbFAB2mTnrA65otzkcbdf7n9880fv8kzfevWiEs0EBYPefsz6gSADcfRjsX91t9l+4+VP4ohHOBgWA3TtnfcAoAXC+7Wb/nePN4VOLRjgbFADmrA+YIAAuQmC9f/HpT7zy/kUjnA0KgMw56wMmDoBbu/Ww3X/p2kfP3r5ohLNBARAyZ31AxQC4ve16//LNX8MvFsNji0Y4GxQAM56zPqCNALjYev+tp1c3PrJohLNBATCvOesDWg2A898GOBuczwRAA3PWB3QRAHfnbHAGEwBV56wP6DIAzudssOsJgEpz1gd0HwAXIeBssMcJgMnnrA+YWQDcmrPB3iYAppuzPmDGAXB7zga7mQCYZs76gIwAuJizwdYnAEadsz4gNQCcDbY+ATDCnPUBzZsiAO7O2WCDEwBlf+J31gf0YdoAOJ+zwaYmAMr91O+sD+hHjQC4CAFngy1MADz6T/3O+oD+1AyAW3M2WHsC4Opz1gf0q3oA3J6zQQHQ2Zz1AX1rJQAu5mxQADQ9Z33ATDQXAM4GBUCDc9YHzE6LAXB3zgYFQO056wNmqu0AOJ+zQQFQ6ad+Z33AfPUQABch4GxQAEzzU7+zPmD+egqAW3M2KADGm7M+IEd3AXB7zgYFQOE56wOy9BoAF3M2KAAebf/irA+I1H0AOBsUAFeYsz4g3hwC4O6cDQqAN5uzPoAZBsD5nA0KgPv81O+sD2DOAXARAs4GBcD5T/3O+gCSAuDWnA0mB4CzPoDYALg9Z4NxAeCsD+BBUgLgYs4G5x4AzvoAHkZcADgbnGUAOOsDuKTEALg7Z4P9B4CzPoAryQ6A84WfDXYbAM76AB6BADiknw12GADO+gAemQA4pJ8N9hQAzvoAShEAh/SzwV4CwFkfQEkC4JB+Nth6ADjrAxiDADiknw02GQDO+gBGJgAO6WeDjQWAsz6ASQiAQ/rZYDMB4KwPYEIC4JB+NthAAJycrVYvPOusD2BCAuCQfjZYMwCc9QHUIgAO6WeDtQLAWR9ATQLgkH42OHUA3DzrOxrjewJwCQLgkH42OEkAOOsDaIwAOKSfDY4cADfP+k6ff/zxr71vjO8DwBUJgEP62eBoAeCsD6BhAiD3bPBzH/vRO483r3x2jK+9XJ7snPUBNEwATLwGzwYBCCQA6qzFs0EAggiAymvsbBCAEAKg/lo8GwRg5gRAS2vvbBCAmRIA7a21s0EAZkgAtLvWzgYBmBEB0PicDQIwBgHQx5wNAlCUAOhszgYBKEEA9DdngwA8MgHQ85wNAnBFAqD/ORsE4NIEwHzmbBCAhyYAZjZngwA8DAEwzzkbBOCBBMDM52wQgDciAOY/Z4MAvI4ASJqzQQBuEwB5czYIgAAInrNBgGACIH7P134PAlCBAIifAABIJADiJwAAEgmA+AkAgEQCIH4CACCRAIifAABIJADiJwAAEgmA+AkAgEQCIH4CACCRAIifAABIJADiJwAAEgmA+AkAgEQCIH4CACCRAIifAABIJADiJwAAEgmA+AkAgEQCIH4CACCRAIifAABIJADiJwAAEgmA+AkAgEQCIH4CACCRAIifAABIJADiJwAAEgmA+AkAgEQCIH4CACCRAIifAABIJADiJwAAEgmA+AkAgEQCIH4CACCRAIifAABIJADiJwAAEgmA+AkAgEQCIH4CACCRAIifAABIJADiJwAAEgmA+AkAgEQCIH4CACCRAIifAABIJADiJwAAEgmA+AkAgEQCIH4CACCRAIifAABIJADiJwAAEgmA+AkAgEQCIH4CACCRAIifAABIJADiJwAAEgmA+AkAgEQCIH4CACCRAIifAABIJADiJwAAEgmA+AkAgEQCIH4CACCRAIifAABIJADiJwAAEgmA+AkAgEQCIH4CACCRAIifAABIJADiJwAAEgmA+AkAgEQCIH4CACCRAIifAABIJADiJwAAEgmA+AkAgEQCIH4CACCRAIifAABIJADiJwAAEgmA+AkAgEQCIH4CACCRAIifAABIJADiJwAAEgmA+AkAgEQCIH4CACCRAIifAABIdLw5W283+5818CAyAQDAlK6tzz6wW+9fauBhZAIAgKntNmef2a4P323goWQCAIApHR0Nb9ttDs9uN/sfN/BwMgEAwJSuPXH23t3m8NXdZv+LBh5SJgAAmNLx5gcf3m4O32zgQWUCAIApXb8+vOV4vT/erQ/7Bh5YJgAAmNJ2+eo7tuvDF3fr/U8aeHCZAABgSs4GZzUBAMDlOBucxQQAAJfnbLD7CQAArs7ZYLcTAAA8OmeD3U0AAFCGs8GuJgAAKMvZYBcTAACMw9lg0xMAAIzL2WCTEwAAjM/ZYHMTAABMx9lgMxMAAEzP2WD1CQAA6nA2KAAACOZsUAAAEMzZoAAAIJizQQEAQChngwIAgGDOBgUAAMGcDQoAAEI5GxQAAARzNigAAAjmbFAAABDM2aAAACCUs0EBAEAwZ4MCAIBgzgYFAAChnA0KAACCORsUAAAEczYoAAAI5mxQAAAQytmgAAAgWPDZoAAAgMCzQQEAAIFngwIAAALPBgUAAASeDQoAAAg8GxQAABB4NigAACDwbFAAAEDg2aAAAIDAs0EBAACBZ4MCAAACzwYFAAAEng0KAAAIPBsUAAAQeDYoAAAg8GxQAABA4NmgAACAwLNBAQAAgWeDAgAAAs8GBQAABJ4NCgAACDwbFAAAEHg2KAAAIPBsUAAAQODZoAAAgMCzQQEAAIFngwIAAALPBgUAAASeDQoAAAg8GxQAABB4NigAACDwbFAAAEDg2aAAAIDAs0EBAACBZ4MCAADyzgYFAADE2S7376n9GgAAAAAAAAAAAAAAAAAAAAAAAAAAWHTs/wHnQWyAY0YVRgAAAABJRU5ErkJggg==;" vertex="1" parent="1">
          <mxGeometry x="269" y="612" width="60" height="60" as="geometry" />
        </mxCell>
        <mxCell id="YTOxkbfLHKp53P6Xq-UA-7" value="" style="image;sketch=0;aspect=fixed;html=1;points=[];align=center;fontSize=12;image=img/lib/mscae/Docker.svg;" vertex="1" parent="1">
          <mxGeometry x="298" y="699" width="50" height="41" as="geometry" />
        </mxCell>
        <mxCell id="YTOxkbfLHKp53P6Xq-UA-4" value="" style="image;sketch=0;aspect=fixed;html=1;points=[];align=center;fontSize=12;image=img/lib/mscae/Cache_Redis_Product.svg;" vertex="1" parent="1">
          <mxGeometry x="378" y="718" width="50" height="42" as="geometry" />
        </mxCell>
        <mxCell id="YTOxkbfLHKp53P6Xq-UA-10" value="" style="outlineConnect=0;dashed=0;verticalLabelPosition=bottom;verticalAlign=top;align=center;html=1;shape=mxgraph.aws3.cloudwatch;fillColor=#759C3E;gradientColor=none;" vertex="1" parent="1">
          <mxGeometry x="430" y="653" width="60" height="50" as="geometry" />
        </mxCell>
        <mxCell id="YTOxkbfLHKp53P6Xq-UA-21" value="" style="ellipse;whiteSpace=wrap;html=1;aspect=fixed;strokeColor=#999999;" vertex="1" parent="1">
          <mxGeometry x="443" y="718" width="80" height="80" as="geometry" />
        </mxCell>
        <mxCell id="YTOxkbfLHKp53P6Xq-UA-22" value="" style="ellipse;whiteSpace=wrap;html=1;aspect=fixed;strokeColor=#999999;" vertex="1" parent="1">
          <mxGeometry x="387" y="778" width="80" height="80" as="geometry" />
        </mxCell>
        <mxCell id="YTOxkbfLHKp53P6Xq-UA-2" value="" style="sketch=0;points=[[0,0,0],[0.25,0,0],[0.5,0,0],[0.75,0,0],[1,0,0],[0,1,0],[0.25,1,0],[0.5,1,0],[0.75,1,0],[1,1,0],[0,0.25,0],[0,0.5,0],[0,0.75,0],[1,0.25,0],[1,0.5,0],[1,0.75,0]];outlineConnect=0;fontColor=#232F3E;fillColor=#E7157B;strokeColor=#ffffff;dashed=0;verticalLabelPosition=bottom;verticalAlign=top;align=center;html=1;fontSize=12;fontStyle=0;aspect=fixed;shape=mxgraph.aws4.resourceIcon;resIcon=mxgraph.aws4.sns;" vertex="1" parent="1">
          <mxGeometry x="460" y="734" width="46" height="46" as="geometry" />
        </mxCell>
        <mxCell id="YTOxkbfLHKp53P6Xq-UA-9" value="" style="sketch=0;points=[[0,0,0],[0.25,0,0],[0.5,0,0],[0.75,0,0],[1,0,0],[0,1,0],[0.25,1,0],[0.5,1,0],[0.75,1,0],[1,1,0],[0,0.25,0],[0,0.5,0],[0,0.75,0],[1,0.25,0],[1,0.5,0],[1,0.75,0]];outlineConnect=0;fontColor=#232F3E;fillColor=#ED7100;strokeColor=#ffffff;dashed=0;verticalLabelPosition=bottom;verticalAlign=top;align=center;html=1;fontSize=12;fontStyle=0;aspect=fixed;shape=mxgraph.aws4.resourceIcon;resIcon=mxgraph.aws4.ecs;" vertex="1" parent="1">
          <mxGeometry x="402" y="793" width="50" height="50" as="geometry" />
        </mxCell>
        <mxCell id="YTOxkbfLHKp53P6Xq-UA-23" value="" style="ellipse;whiteSpace=wrap;html=1;aspect=fixed;strokeColor=#999999;" vertex="1" parent="1">
          <mxGeometry x="398" y="559" width="80" height="80" as="geometry" />
        </mxCell>
        <mxCell id="YTOxkbfLHKp53P6Xq-UA-24" value="" style="ellipse;whiteSpace=wrap;html=1;aspect=fixed;strokeColor=#999999;" vertex="1" parent="1">
          <mxGeometry x="467" y="797" width="80" height="80" as="geometry" />
        </mxCell>
        <mxCell id="YTOxkbfLHKp53P6Xq-UA-25" value="" style="ellipse;whiteSpace=wrap;html=1;aspect=fixed;strokeColor=#999999;" vertex="1" parent="1">
          <mxGeometry x="307" y="760" width="80" height="80" as="geometry" />
        </mxCell>
        <mxCell id="YTOxkbfLHKp53P6Xq-UA-12" value="" style="sketch=0;points=[[0,0,0],[0.25,0,0],[0.5,0,0],[0.75,0,0],[1,0,0],[0,1,0],[0.25,1,0],[0.5,1,0],[0.75,1,0],[1,1,0],[0,0.25,0],[0,0.5,0],[0,0.75,0],[1,0.25,0],[1,0.5,0],[1,0.75,0]];outlineConnect=0;fontColor=#232F3E;fillColor=#DD344C;strokeColor=#ffffff;dashed=0;verticalLabelPosition=bottom;verticalAlign=top;align=center;html=1;fontSize=12;fontStyle=0;aspect=fixed;shape=mxgraph.aws4.resourceIcon;resIcon=mxgraph.aws4.certificate_manager_3;" vertex="1" parent="1">
          <mxGeometry x="414" y="575" width="48" height="48" as="geometry" />
        </mxCell>
        <mxCell id="YTOxkbfLHKp53P6Xq-UA-1" value="" style="sketch=0;points=[[0,0,0],[0.25,0,0],[0.5,0,0],[0.75,0,0],[1,0,0],[0,1,0],[0.25,1,0],[0.5,1,0],[0.75,1,0],[1,1,0],[0,0.25,0],[0,0.5,0],[0,0.75,0],[1,0.25,0],[1,0.5,0],[1,0.75,0]];outlineConnect=0;fontColor=#232F3E;fillColor=#E7157B;strokeColor=#ffffff;dashed=0;verticalLabelPosition=bottom;verticalAlign=top;align=center;html=1;fontSize=12;fontStyle=0;aspect=fixed;shape=mxgraph.aws4.resourceIcon;resIcon=mxgraph.aws4.sqs;" vertex="1" parent="1">
          <mxGeometry x="322" y="775" width="50" height="50" as="geometry" />
        </mxCell>
        <mxCell id="YTOxkbfLHKp53P6Xq-UA-13" value="" style="sketch=0;points=[[0,0,0],[0.25,0,0],[0.5,0,0],[0.75,0,0],[1,0,0],[0,1,0],[0.25,1,0],[0.5,1,0],[0.75,1,0],[1,1,0],[0,0.25,0],[0,0.5,0],[0,0.75,0],[1,0.25,0],[1,0.5,0],[1,0.75,0]];outlineConnect=0;fontColor=#232F3E;fillColor=#DD344C;strokeColor=#ffffff;dashed=0;verticalLabelPosition=bottom;verticalAlign=top;align=center;html=1;fontSize=12;fontStyle=0;aspect=fixed;shape=mxgraph.aws4.resourceIcon;resIcon=mxgraph.aws4.key_management_service;" vertex="1" parent="1">
          <mxGeometry x="483" y="813" width="48" height="48" as="geometry" />
        </mxCell>
        <mxCell id="YTOxkbfLHKp53P6Xq-UA-28" value="" style="ellipse;whiteSpace=wrap;html=1;aspect=fixed;strokeColor=#999999;" vertex="1" parent="1">
          <mxGeometry x="430" y="871" width="80" height="80" as="geometry" />
        </mxCell>
        <mxCell id="YTOxkbfLHKp53P6Xq-UA-27" value="" style="sketch=0;points=[[0,0,0],[0.25,0,0],[0.5,0,0],[0.75,0,0],[1,0,0],[0,1,0],[0.25,1,0],[0.5,1,0],[0.75,1,0],[1,1,0],[0,0.25,0],[0,0.5,0],[0,0.75,0],[1,0.25,0],[1,0.5,0],[1,0.75,0]];outlineConnect=0;fontColor=#232F3E;fillColor=#7AA116;strokeColor=#ffffff;dashed=0;verticalLabelPosition=bottom;verticalAlign=top;align=center;html=1;fontSize=12;fontStyle=0;aspect=fixed;shape=mxgraph.aws4.resourceIcon;resIcon=mxgraph.aws4.s3;" vertex="1" parent="1">
          <mxGeometry x="446.5" y="887.5" width="47" height="47" as="geometry" />
        </mxCell>
      </root>
    </mxGraphModel>
  </diagram>
</mxfile>
